<svg width="299" height="59" viewBox="0 0 299 59" fill="none" xmlns="http://www.w3.org/2000/svg">
<g filter="url(#filter0_d_82_4)">
<rect x="4" width="291" height="51" rx="10" fill="#112049"/>
<rect x="4.5" y="0.5" width="290" height="50" rx="9.5" stroke="black"/>
<rect x="4.5" y="0.5" width="290" height="50" rx="9.5" stroke="black" stroke-opacity="0.2"/>
</g>
<path d="M75.7115 31.14C75.3915 31.14 75.1715 31.0333 75.0515 30.82C74.9315 30.6067 74.9448 30.34 75.0915 30.02L80.5915 17.5C80.8048 17.0067 81.1315 16.76 81.5715 16.76C81.7715 16.76 81.9515 16.82 82.1115 16.94C82.2848 17.0467 82.4248 17.2333 82.5315 17.5L88.0515 30.02C88.1982 30.34 88.2182 30.6067 88.1115 30.82C88.0048 31.0333 87.7915 31.14 87.4715 31.14C87.2315 31.14 87.0382 31.08 86.8915 30.96C86.7448 30.8267 86.6248 30.64 86.5315 30.4L85.2315 27.4H77.8915L76.6115 30.4C76.3982 30.8933 76.0982 31.14 75.7115 31.14ZM81.5515 18.82L78.4915 26.02H84.6515L81.5915 18.82H81.5515ZM93.9641 31.18C93.0975 31.18 92.3375 30.9733 91.6841 30.56C91.0441 30.1467 90.5441 29.5667 90.1841 28.82C89.8375 28.06 89.6641 27.1667 89.6641 26.14C89.6641 25.1 89.8375 24.2067 90.1841 23.46C90.5441 22.7 91.0441 22.12 91.6841 21.72C92.3375 21.3067 93.0975 21.1 93.9641 21.1C94.7241 21.1 95.3908 21.2667 95.9641 21.6C96.5508 21.9333 96.9841 22.3933 97.2641 22.98V17.58C97.2641 17.0333 97.5375 16.76 98.0841 16.76C98.6175 16.76 98.8841 17.0333 98.8841 17.58V30.3C98.8841 30.86 98.6175 31.14 98.0841 31.14C97.5508 31.14 97.2841 30.86 97.2841 30.3V29.26C96.9908 29.86 96.5508 30.3333 95.9641 30.68C95.3908 31.0133 94.7241 31.18 93.9641 31.18ZM94.3041 29.88C95.2108 29.88 95.9375 29.56 96.4841 28.92C97.0308 28.2667 97.3041 27.34 97.3041 26.14C97.3041 24.9267 97.0308 24 96.4841 23.36C95.9375 22.72 95.2108 22.4 94.3041 22.4C93.3841 22.4 92.6508 22.72 92.1041 23.36C91.5708 24 91.3041 24.9267 91.3041 26.14C91.3041 27.34 91.5708 28.2667 92.1041 28.92C92.6508 29.56 93.3841 29.88 94.3041 29.88ZM105.624 31.18C104.758 31.18 103.998 30.9733 103.344 30.56C102.704 30.1467 102.204 29.5667 101.844 28.82C101.498 28.06 101.324 27.1667 101.324 26.14C101.324 25.1 101.498 24.2067 101.844 23.46C102.204 22.7 102.704 22.12 103.344 21.72C103.998 21.3067 104.758 21.1 105.624 21.1C106.384 21.1 107.051 21.2667 107.624 21.6C108.211 21.9333 108.644 22.3933 108.924 22.98V17.58C108.924 17.0333 109.198 16.76 109.744 16.76C110.278 16.76 110.544 17.0333 110.544 17.58V30.3C110.544 30.86 110.278 31.14 109.744 31.14C109.211 31.14 108.944 30.86 108.944 30.3V29.26C108.651 29.86 108.211 30.3333 107.624 30.68C107.051 31.0133 106.384 31.18 105.624 31.18ZM105.964 29.88C106.871 29.88 107.598 29.56 108.144 28.92C108.691 28.2667 108.964 27.34 108.964 26.14C108.964 24.9267 108.691 24 108.144 23.36C107.598 22.72 106.871 22.4 105.964 22.4C105.044 22.4 104.311 22.72 103.764 23.36C103.231 24 102.964 24.9267 102.964 26.14C102.964 27.34 103.231 28.2667 103.764 28.92C104.311 29.56 105.044 29.88 105.964 29.88ZM125.061 31.18C123.674 31.18 122.487 30.8867 121.501 30.3C120.514 29.7133 119.754 28.88 119.221 27.8C118.701 26.72 118.441 25.4333 118.441 23.94C118.441 22.46 118.701 21.18 119.221 20.1C119.754 19.02 120.514 18.1867 121.501 17.6C122.487 17.0133 123.674 16.72 125.061 16.72C125.887 16.72 126.674 16.84 127.421 17.08C128.167 17.32 128.814 17.66 129.361 18.1C129.587 18.26 129.714 18.4467 129.741 18.66C129.781 18.8733 129.747 19.0667 129.641 19.24C129.534 19.4 129.381 19.5067 129.181 19.56C128.994 19.6 128.781 19.5333 128.541 19.36C127.594 18.6 126.447 18.22 125.101 18.22C123.514 18.22 122.301 18.72 121.461 19.72C120.621 20.72 120.201 22.1267 120.201 23.94C120.201 25.7667 120.621 27.18 121.461 28.18C122.301 29.18 123.514 29.68 125.101 29.68C126.447 29.68 127.607 29.2933 128.581 28.52C128.821 28.36 129.034 28.3 129.221 28.34C129.421 28.38 129.567 28.48 129.661 28.64C129.767 28.8 129.807 28.98 129.781 29.18C129.754 29.38 129.641 29.56 129.441 29.72C128.867 30.2 128.207 30.5667 127.461 30.82C126.714 31.06 125.914 31.18 125.061 31.18ZM134.945 31.18C134.279 31.18 133.679 31.0533 133.145 30.8C132.625 30.5333 132.212 30.1733 131.905 29.72C131.599 29.2667 131.445 28.76 131.445 28.2C131.445 27.4933 131.625 26.9333 131.985 26.52C132.359 26.1067 132.965 25.8133 133.805 25.64C134.659 25.4533 135.819 25.36 137.285 25.36H137.925V24.74C137.925 23.9133 137.752 23.32 137.405 22.96C137.072 22.5867 136.532 22.4 135.785 22.4C135.319 22.4 134.845 22.46 134.365 22.58C133.899 22.7 133.412 22.8933 132.905 23.16C132.679 23.28 132.485 23.3067 132.325 23.24C132.179 23.16 132.072 23.04 132.005 22.88C131.952 22.7067 131.952 22.5333 132.005 22.36C132.072 22.1733 132.205 22.0333 132.405 21.94C132.979 21.6467 133.552 21.4333 134.125 21.3C134.712 21.1667 135.265 21.1 135.785 21.1C137.039 21.1 137.965 21.4067 138.565 22.02C139.179 22.6333 139.485 23.5867 139.485 24.88V30.3C139.485 30.86 139.239 31.14 138.745 31.14C138.225 31.14 137.965 30.86 137.965 30.3V29.32C137.712 29.8933 137.319 30.3467 136.785 30.68C136.265 31.0133 135.652 31.18 134.945 31.18ZM135.205 29.96C136.005 29.96 136.659 29.6867 137.165 29.14C137.672 28.58 137.925 27.8733 137.925 27.02V26.42H137.305C136.225 26.42 135.372 26.4733 134.745 26.58C134.132 26.6733 133.699 26.8467 133.445 27.1C133.205 27.34 133.085 27.6733 133.085 28.1C133.085 28.6467 133.272 29.0933 133.645 29.44C134.032 29.7867 134.552 29.96 135.205 29.96ZM143.331 31.14C142.797 31.14 142.531 30.86 142.531 30.3V21.96C142.531 21.4133 142.791 21.14 143.311 21.14C143.844 21.14 144.111 21.4133 144.111 21.96V22.92C144.404 22.3333 144.811 21.8867 145.331 21.58C145.851 21.26 146.457 21.1 147.151 21.1C148.671 21.1 149.644 21.76 150.071 23.08C150.364 22.4667 150.797 21.9867 151.371 21.64C151.944 21.28 152.604 21.1 153.351 21.1C155.511 21.1 156.591 22.38 156.591 24.94V30.3C156.591 30.86 156.317 31.14 155.771 31.14C155.237 31.14 154.971 30.86 154.971 30.3V25.02C154.971 24.1267 154.811 23.4733 154.491 23.06C154.184 22.6333 153.671 22.42 152.951 22.42C152.164 22.42 151.537 22.7 151.071 23.26C150.604 23.82 150.371 24.5667 150.371 25.5V30.3C150.371 30.86 150.097 31.14 149.551 31.14C149.017 31.14 148.751 30.86 148.751 30.3V25.02C148.751 24.1267 148.591 23.4733 148.271 23.06C147.964 22.6333 147.451 22.42 146.731 22.42C145.931 22.42 145.297 22.7 144.831 23.26C144.377 23.82 144.151 24.5667 144.151 25.5V30.3C144.151 30.86 143.877 31.14 143.331 31.14ZM160.42 34.74C159.886 34.74 159.62 34.4667 159.62 33.92V21.96C159.62 21.4133 159.88 21.14 160.4 21.14C160.946 21.14 161.22 21.4133 161.22 21.96V23C161.5 22.4133 161.933 21.9533 162.52 21.62C163.106 21.2733 163.78 21.1 164.54 21.1C165.406 21.1 166.16 21.3067 166.8 21.72C167.453 22.12 167.953 22.7 168.3 23.46C168.66 24.2067 168.84 25.1 168.84 26.14C168.84 27.1667 168.66 28.06 168.3 28.82C167.953 29.5667 167.453 30.1467 166.8 30.56C166.16 30.9733 165.406 31.18 164.54 31.18C163.793 31.18 163.126 31.0133 162.54 30.68C161.953 30.3467 161.52 29.8867 161.24 29.3V33.92C161.24 34.4667 160.966 34.74 160.42 34.74ZM164.2 29.88C165.106 29.88 165.833 29.56 166.38 28.92C166.926 28.2667 167.2 27.34 167.2 26.14C167.2 24.9267 166.926 24 166.38 23.36C165.833 22.72 165.106 22.4 164.2 22.4C163.293 22.4 162.566 22.72 162.02 23.36C161.473 24 161.2 24.9267 161.2 26.14C161.2 27.34 161.473 28.2667 162.02 28.92C162.566 29.56 163.293 29.88 164.2 29.88ZM174.34 31.18C173.673 31.18 173.073 31.0533 172.54 30.8C172.02 30.5333 171.606 30.1733 171.3 29.72C170.993 29.2667 170.84 28.76 170.84 28.2C170.84 27.4933 171.02 26.9333 171.38 26.52C171.753 26.1067 172.36 25.8133 173.2 25.64C174.053 25.4533 175.213 25.36 176.68 25.36H177.32V24.74C177.32 23.9133 177.146 23.32 176.8 22.96C176.466 22.5867 175.926 22.4 175.18 22.4C174.713 22.4 174.24 22.46 173.76 22.58C173.293 22.7 172.806 22.8933 172.3 23.16C172.073 23.28 171.88 23.3067 171.72 23.24C171.573 23.16 171.466 23.04 171.4 22.88C171.346 22.7067 171.346 22.5333 171.4 22.36C171.466 22.1733 171.6 22.0333 171.8 21.94C172.373 21.6467 172.946 21.4333 173.52 21.3C174.106 21.1667 174.66 21.1 175.18 21.1C176.433 21.1 177.36 21.4067 177.96 22.02C178.573 22.6333 178.88 23.5867 178.88 24.88V30.3C178.88 30.86 178.633 31.14 178.14 31.14C177.62 31.14 177.36 30.86 177.36 30.3V29.32C177.106 29.8933 176.713 30.3467 176.18 30.68C175.66 31.0133 175.046 31.18 174.34 31.18ZM174.6 29.96C175.4 29.96 176.053 29.6867 176.56 29.14C177.066 28.58 177.32 27.8733 177.32 27.02V26.42H176.7C175.62 26.42 174.766 26.4733 174.14 26.58C173.526 26.6733 173.093 26.8467 172.84 27.1C172.6 27.34 172.48 27.6733 172.48 28.1C172.48 28.6467 172.666 29.0933 173.04 29.44C173.426 29.7867 173.946 29.96 174.6 29.96ZM182.685 18.94C181.979 18.94 181.625 18.6067 181.625 17.94C181.625 17.2867 181.979 16.96 182.685 16.96C183.392 16.96 183.745 17.2867 183.745 17.94C183.745 18.6067 183.392 18.94 182.685 18.94ZM182.685 31.1C182.152 31.1 181.885 30.8067 181.885 30.22V22.04C181.885 21.4667 182.152 21.18 182.685 21.18C183.232 21.18 183.505 21.4667 183.505 22.04V30.22C183.505 30.8067 183.232 31.1 182.685 31.1ZM190.834 34.78C190.127 34.78 189.434 34.6933 188.754 34.52C188.087 34.36 187.48 34.1 186.934 33.74C186.734 33.62 186.614 33.4733 186.574 33.3C186.547 33.14 186.574 32.98 186.654 32.82C186.734 32.6733 186.847 32.5667 186.994 32.5C187.154 32.4333 187.32 32.4467 187.494 32.54C188.08 32.9 188.64 33.1467 189.174 33.28C189.707 33.4133 190.234 33.48 190.754 33.48C192.674 33.48 193.634 32.4933 193.634 30.52V28.8C193.354 29.4133 192.914 29.9 192.314 30.26C191.727 30.6067 191.054 30.78 190.294 30.78C189.4 30.78 188.627 30.5733 187.974 30.16C187.32 29.7467 186.814 29.18 186.454 28.46C186.107 27.7267 185.934 26.88 185.934 25.92C185.934 24.96 186.107 24.12 186.454 23.4C186.814 22.6667 187.32 22.1 187.974 21.7C188.627 21.3 189.4 21.1 190.294 21.1C191.054 21.1 191.727 21.2667 192.314 21.6C192.9 21.9333 193.334 22.4 193.614 23V21.96C193.614 21.4133 193.88 21.14 194.414 21.14C194.947 21.14 195.214 21.4133 195.214 21.96V30.3C195.214 31.7933 194.84 32.9133 194.094 33.66C193.36 34.4067 192.274 34.78 190.834 34.78ZM190.594 29.46C191.527 29.46 192.267 29.14 192.814 28.5C193.36 27.86 193.634 27 193.634 25.92C193.634 24.84 193.36 23.9867 192.814 23.36C192.267 22.72 191.527 22.4 190.594 22.4C189.674 22.4 188.94 22.72 188.394 23.36C187.847 23.9867 187.574 24.84 187.574 25.92C187.574 27 187.847 27.86 188.394 28.5C188.94 29.14 189.674 29.46 190.594 29.46ZM199.052 31.14C198.519 31.14 198.252 30.86 198.252 30.3V21.96C198.252 21.4133 198.512 21.14 199.032 21.14C199.566 21.14 199.832 21.4133 199.832 21.96V22.94C200.152 22.3267 200.606 21.8667 201.192 21.56C201.779 21.2533 202.439 21.1 203.172 21.1C205.479 21.1 206.632 22.38 206.632 24.94V30.3C206.632 30.86 206.366 31.14 205.832 31.14C205.286 31.14 205.012 30.86 205.012 30.3V25.04C205.012 24.1333 204.832 23.4733 204.472 23.06C204.126 22.6333 203.566 22.42 202.792 22.42C201.899 22.42 201.186 22.7 200.652 23.26C200.132 23.8067 199.872 24.54 199.872 25.46V30.3C199.872 30.86 199.599 31.14 199.052 31.14ZM212.9 31.18C212.3 31.18 211.693 31.1067 211.08 30.96C210.48 30.8 209.92 30.5467 209.4 30.2C209.16 30.0533 209.04 29.8667 209.04 29.64C209.053 29.4 209.146 29.2133 209.32 29.08C209.493 28.9467 209.713 28.9467 209.98 29.08C210.5 29.4 211 29.6267 211.48 29.76C211.973 29.88 212.46 29.94 212.94 29.94C213.7 29.94 214.273 29.8 214.66 29.52C215.046 29.24 215.24 28.86 215.24 28.38C215.24 28.0067 215.113 27.7133 214.86 27.5C214.606 27.2733 214.206 27.1 213.66 26.98L211.84 26.58C210.186 26.22 209.36 25.3667 209.36 24.02C209.36 23.14 209.706 22.4333 210.4 21.9C211.106 21.3667 212.026 21.1 213.16 21.1C213.733 21.1 214.286 21.18 214.82 21.34C215.353 21.4867 215.833 21.7267 216.26 22.06C216.486 22.22 216.586 22.4133 216.56 22.64C216.533 22.8667 216.426 23.0467 216.24 23.18C216.066 23.3 215.853 23.28 215.6 23.12C215.2 22.8533 214.793 22.66 214.38 22.54C213.966 22.4067 213.56 22.34 213.16 22.34C212.413 22.34 211.846 22.4867 211.46 22.78C211.073 23.0733 210.88 23.46 210.88 23.94C210.88 24.6867 211.373 25.1667 212.36 25.38L214.18 25.76C215.033 25.9467 215.68 26.2467 216.12 26.66C216.56 27.06 216.78 27.6067 216.78 28.3C216.78 29.1933 216.426 29.9 215.72 30.42C215.013 30.9267 214.073 31.18 212.9 31.18Z" fill="white"/>
<defs>
<filter id="filter0_d_82_4" x="0" y="0" width="299" height="59" filterUnits="userSpaceOnUse" color-interpolation-filters="sRGB">
<feFlood flood-opacity="0" result="BackgroundImageFix"/>
<feColorMatrix in="SourceAlpha" type="matrix" values="0 0 0 0 0 0 0 0 0 0 0 0 0 0 0 0 0 0 127 0" result="hardAlpha"/>
<feOffset dy="4"/>
<feGaussianBlur stdDeviation="2"/>
<feComposite in2="hardAlpha" operator="out"/>
<feColorMatrix type="matrix" values="0 0 0 0 0 0 0 0 0 0 0 0 0 0 0 0 0 0 0.25 0"/>
<feBlend mode="normal" in2="BackgroundImageFix" result="effect1_dropShadow_82_4"/>
<feBlend mode="normal" in="SourceGraphic" in2="effect1_dropShadow_82_4" result="shape"/>
</filter>
</defs>
</svg>
