<svg width="294" height="37" viewBox="0 0 294 37" fill="none" xmlns="http://www.w3.org/2000/svg">
<path d="M3.36 29.32C2.42667 29.32 1.76 29 1.36 28.36C0.96 27.72 0.973333 26.9467 1.4 26.04L11.96 2.64C12.3067 1.86667 12.72 1.32 13.2 0.999998C13.7067 0.653331 14.28 0.479998 14.92 0.479998C15.5333 0.479998 16.08 0.653331 16.56 0.999998C17.0667 1.32 17.4933 1.86667 17.84 2.64L28.44 26.04C28.8667 26.9733 28.8933 27.76 28.52 28.4C28.1467 29.0133 27.5067 29.32 26.6 29.32C25.8533 29.32 25.2667 29.1467 24.84 28.8C24.44 28.4267 24.08 27.8667 23.76 27.12L21.76 22.48H8L6.04 27.12C5.69333 27.8933 5.33333 28.4533 4.96 28.8C4.58667 29.1467 4.05333 29.32 3.36 29.32ZM14.84 6.36L9.76 18.4H20L14.92 6.36H14.84ZM39.6903 29.4C37.9836 29.4 36.477 28.9867 35.1703 28.16C33.8903 27.3333 32.8903 26.16 32.1703 24.64C31.4503 23.0933 31.0903 21.28 31.0903 19.2C31.0903 17.0933 31.4503 15.2933 32.1703 13.8C32.8903 12.28 33.8903 11.1067 35.1703 10.28C36.477 9.45333 37.9836 9.04 39.6903 9.04C41.077 9.04 42.3303 9.34667 43.4503 9.96C44.5703 10.5733 45.4103 11.3867 45.9703 12.4V3C45.9703 1.32 46.797 0.479998 48.4503 0.479998C50.1303 0.479998 50.9703 1.32 50.9703 3V26.76C50.9703 28.4667 50.1436 29.32 48.4903 29.32C46.837 29.32 46.0103 28.4667 46.0103 26.76V25.92C45.4503 26.9867 44.6103 27.84 43.4903 28.48C42.3703 29.0933 41.1036 29.4 39.6903 29.4ZM41.0903 25.6C42.5836 25.6 43.7836 25.0667 44.6903 24C45.597 22.9067 46.0503 21.3067 46.0503 19.2C46.0503 17.0667 45.597 15.48 44.6903 14.44C43.7836 13.3733 42.5836 12.84 41.0903 12.84C39.597 12.84 38.397 13.3733 37.4903 14.44C36.5836 15.48 36.1303 17.0667 36.1303 19.2C36.1303 21.3067 36.5836 22.9067 37.4903 24C38.397 25.0667 39.597 25.6 41.0903 25.6ZM63.6747 29.4C61.968 29.4 60.4614 28.9867 59.1547 28.16C57.8747 27.3333 56.8747 26.16 56.1547 24.64C55.4347 23.0933 55.0747 21.28 55.0747 19.2C55.0747 17.0933 55.4347 15.2933 56.1547 13.8C56.8747 12.28 57.8747 11.1067 59.1547 10.28C60.4614 9.45333 61.968 9.04 63.6747 9.04C65.0614 9.04 66.3147 9.34667 67.4347 9.96C68.5547 10.5733 69.3947 11.3867 69.9547 12.4V3C69.9547 1.32 70.7814 0.479998 72.4347 0.479998C74.1147 0.479998 74.9547 1.32 74.9547 3V26.76C74.9547 28.4667 74.128 29.32 72.4747 29.32C70.8214 29.32 69.9947 28.4667 69.9947 26.76V25.92C69.4347 26.9867 68.5947 27.84 67.4747 28.48C66.3547 29.0933 65.088 29.4 63.6747 29.4ZM65.0747 25.6C66.568 25.6 67.768 25.0667 68.6747 24C69.5814 22.9067 70.0347 21.3067 70.0347 19.2C70.0347 17.0667 69.5814 15.48 68.6747 14.44C67.768 13.3733 66.568 12.84 65.0747 12.84C63.5814 12.84 62.3814 13.3733 61.4747 14.44C60.568 15.48 60.1147 17.0667 60.1147 19.2C60.1147 21.3067 60.568 22.9067 61.4747 24C62.3814 25.0667 63.5814 25.6 65.0747 25.6ZM104.598 29.4C101.665 29.4 99.1451 28.8133 97.0384 27.64C94.9584 26.44 93.3584 24.76 92.2384 22.6C91.1184 20.4133 90.5584 17.84 90.5584 14.88C90.5584 11.92 91.1184 9.36 92.2384 7.2C93.3584 5.04 94.9584 3.37333 97.0384 2.2C99.1451 0.999999 101.665 0.399999 104.598 0.399999C106.065 0.399999 107.505 0.586665 108.918 0.959999C110.332 1.33333 111.572 1.86667 112.638 2.56C113.332 3.01333 113.745 3.56 113.878 4.2C114.012 4.81333 113.932 5.38667 113.638 5.92C113.345 6.42667 112.905 6.77333 112.318 6.96C111.732 7.12 111.078 6.96 110.358 6.48C109.532 5.94667 108.638 5.56 107.678 5.32C106.718 5.08 105.745 4.96 104.758 4.96C101.905 4.96 99.7318 5.82667 98.2384 7.56C96.7451 9.26667 95.9984 11.7067 95.9984 14.88C95.9984 18.0533 96.7451 20.5067 98.2384 22.24C99.7318 23.9733 101.905 24.84 104.758 24.84C105.772 24.84 106.772 24.72 107.758 24.48C108.745 24.2133 109.678 23.8133 110.558 23.28C111.278 22.8267 111.918 22.68 112.478 22.84C113.038 23 113.452 23.3333 113.718 23.84C114.012 24.32 114.105 24.8533 113.998 25.44C113.892 26.0267 113.532 26.5467 112.918 27C111.852 27.7733 110.572 28.3733 109.078 28.8C107.612 29.2 106.118 29.4 104.598 29.4ZM123.923 29.4C122.509 29.4 121.243 29.1333 120.123 28.6C119.029 28.04 118.163 27.2933 117.523 26.36C116.909 25.4267 116.603 24.3733 116.603 23.2C116.603 21.76 116.976 20.6267 117.723 19.8C118.469 18.9467 119.683 18.3333 121.363 17.96C123.043 17.5867 125.296 17.4 128.123 17.4H129.523V16.56C129.523 15.2267 129.229 14.2667 128.643 13.68C128.056 13.0933 127.069 12.8 125.683 12.8C124.909 12.8 124.069 12.8933 123.163 13.08C122.283 13.2667 121.349 13.5867 120.363 14.04C119.723 14.3333 119.189 14.3733 118.763 14.16C118.336 13.92 118.043 13.56 117.883 13.08C117.749 12.5733 117.776 12.0667 117.963 11.56C118.176 11.0533 118.589 10.68 119.203 10.44C120.429 9.93333 121.603 9.57333 122.723 9.36C123.869 9.14667 124.909 9.04 125.843 9.04C128.696 9.04 130.816 9.70667 132.203 11.04C133.589 12.3467 134.283 14.3867 134.283 17.16V26.76C134.283 28.4667 133.509 29.32 131.963 29.32C130.389 29.32 129.603 28.4667 129.603 26.76V25.88C129.149 26.9733 128.429 27.84 127.443 28.48C126.456 29.0933 125.283 29.4 123.923 29.4ZM124.963 25.96C126.269 25.96 127.349 25.5067 128.203 24.6C129.083 23.6933 129.523 22.5467 129.523 21.16V20.28H128.163C125.656 20.28 123.909 20.48 122.923 20.88C121.963 21.2533 121.483 21.9467 121.483 22.96C121.483 23.84 121.789 24.56 122.403 25.12C123.016 25.68 123.869 25.96 124.963 25.96ZM141.918 29.32C140.264 29.32 139.438 28.4667 139.438 26.76V11.64C139.438 9.96 140.251 9.12 141.878 9.12C143.504 9.12 144.318 9.96 144.318 11.64V12.44C144.904 11.3733 145.718 10.5467 146.758 9.96C147.798 9.34667 148.998 9.04 150.358 9.04C153.291 9.04 155.211 10.32 156.118 12.88C156.731 11.68 157.611 10.7467 158.758 10.08C159.904 9.38667 161.211 9.04 162.678 9.04C167.078 9.04 169.278 11.72 169.278 17.08V26.76C169.278 28.4667 168.438 29.32 166.758 29.32C165.104 29.32 164.278 28.4667 164.278 26.76V17.28C164.278 15.7867 164.024 14.6933 163.518 14C163.038 13.3067 162.211 12.96 161.038 12.96C159.731 12.96 158.704 13.4267 157.958 14.36C157.211 15.2667 156.838 16.5333 156.838 18.16V26.76C156.838 28.4667 156.011 29.32 154.358 29.32C152.678 29.32 151.838 28.4667 151.838 26.76V17.28C151.838 15.7867 151.584 14.6933 151.078 14C150.598 13.3067 149.784 12.96 148.638 12.96C147.331 12.96 146.304 13.4267 145.558 14.36C144.811 15.2667 144.438 16.5333 144.438 18.16V26.76C144.438 28.4667 143.598 29.32 141.918 29.32ZM176.916 36.52C175.263 36.52 174.436 35.68 174.436 34V11.64C174.436 9.96 175.249 9.12 176.876 9.12C178.529 9.12 179.356 9.96 179.356 11.64V12.48C179.916 11.44 180.756 10.6133 181.876 10C182.996 9.36 184.276 9.04 185.716 9.04C187.423 9.04 188.916 9.45333 190.196 10.28C191.503 11.1067 192.516 12.28 193.236 13.8C193.956 15.2933 194.316 17.0933 194.316 19.2C194.316 21.28 193.956 23.0933 193.236 24.64C192.516 26.16 191.516 27.3333 190.236 28.16C188.956 28.9867 187.449 29.4 185.716 29.4C184.329 29.4 183.076 29.1067 181.956 28.52C180.863 27.9067 180.023 27.0933 179.436 26.08V34C179.436 35.68 178.596 36.52 176.916 36.52ZM184.316 25.6C185.809 25.6 187.009 25.0667 187.916 24C188.823 22.9067 189.276 21.3067 189.276 19.2C189.276 17.0667 188.823 15.48 187.916 14.44C187.009 13.3733 185.809 12.84 184.316 12.84C182.823 12.84 181.623 13.3733 180.716 14.44C179.809 15.48 179.356 17.0667 179.356 19.2C179.356 21.3067 179.809 22.9067 180.716 24C181.623 25.0667 182.823 25.6 184.316 25.6ZM204.86 29.4C203.447 29.4 202.18 29.1333 201.06 28.6C199.967 28.04 199.1 27.2933 198.46 26.36C197.847 25.4267 197.54 24.3733 197.54 23.2C197.54 21.76 197.914 20.6267 198.66 19.8C199.407 18.9467 200.62 18.3333 202.3 17.96C203.98 17.5867 206.234 17.4 209.06 17.4H210.46V16.56C210.46 15.2267 210.167 14.2667 209.58 13.68C208.994 13.0933 208.007 12.8 206.62 12.8C205.847 12.8 205.007 12.8933 204.1 13.08C203.22 13.2667 202.287 13.5867 201.3 14.04C200.66 14.3333 200.127 14.3733 199.7 14.16C199.274 13.92 198.98 13.56 198.82 13.08C198.687 12.5733 198.714 12.0667 198.9 11.56C199.114 11.0533 199.527 10.68 200.14 10.44C201.367 9.93333 202.54 9.57333 203.66 9.36C204.807 9.14667 205.847 9.04 206.78 9.04C209.634 9.04 211.754 9.70667 213.14 11.04C214.527 12.3467 215.22 14.3867 215.22 17.16V26.76C215.22 28.4667 214.447 29.32 212.9 29.32C211.327 29.32 210.54 28.4667 210.54 26.76V25.88C210.087 26.9733 209.367 27.84 208.38 28.48C207.394 29.0933 206.22 29.4 204.86 29.4ZM205.9 25.96C207.207 25.96 208.287 25.5067 209.14 24.6C210.02 23.6933 210.46 22.5467 210.46 21.16V20.28H209.1C206.594 20.28 204.847 20.48 203.86 20.88C202.9 21.2533 202.42 21.9467 202.42 22.96C202.42 23.84 202.727 24.56 203.34 25.12C203.954 25.68 204.807 25.96 205.9 25.96ZM222.775 5.44C221.842 5.44 221.109 5.21333 220.575 4.76C220.069 4.28 219.815 3.62667 219.815 2.8C219.815 1.94667 220.069 1.29333 220.575 0.839998C221.109 0.386666 221.842 0.159999 222.775 0.159999C224.749 0.159999 225.735 1.04 225.735 2.8C225.735 4.56 224.749 5.44 222.775 5.44ZM222.775 29.28C221.975 29.28 221.362 29.04 220.935 28.56C220.509 28.08 220.295 27.4133 220.295 26.56V11.88C220.295 10.0667 221.122 9.16 222.775 9.16C224.455 9.16 225.295 10.0667 225.295 11.88V26.56C225.295 27.4133 225.082 28.08 224.655 28.56C224.229 29.04 223.602 29.28 222.775 29.28ZM239.611 36.6C238.171 36.6 236.771 36.4667 235.411 36.2C234.077 35.9333 232.864 35.52 231.771 34.96C231.131 34.64 230.744 34.2267 230.611 33.72C230.504 33.24 230.557 32.7733 230.771 32.32C230.984 31.8667 231.304 31.5333 231.731 31.32C232.184 31.1333 232.664 31.16 233.171 31.4C234.344 31.9867 235.451 32.36 236.491 32.52C237.557 32.7067 238.464 32.8 239.211 32.8C242.784 32.8 244.571 31.08 244.571 27.64V24.96C244.011 26.0533 243.144 26.92 241.971 27.56C240.824 28.2 239.544 28.52 238.131 28.52C236.371 28.52 234.837 28.12 233.531 27.32C232.224 26.4933 231.211 25.3467 230.491 23.88C229.771 22.4133 229.411 20.7067 229.411 18.76C229.411 16.8133 229.771 15.12 230.491 13.68C231.211 12.2133 232.224 11.08 233.531 10.28C234.837 9.45333 236.371 9.04 238.131 9.04C239.544 9.04 240.824 9.34667 241.971 9.96C243.117 10.5733 243.957 11.4133 244.491 12.48V11.64C244.491 10.8133 244.704 10.1867 245.131 9.76C245.584 9.33333 246.197 9.12 246.971 9.12C248.624 9.12 249.451 9.96 249.451 11.64V27.04C249.451 30.2133 248.611 32.6 246.931 34.2C245.251 35.8 242.811 36.6 239.611 36.6ZM239.491 24.72C241.037 24.72 242.264 24.1867 243.171 23.12C244.077 22.0533 244.531 20.6 244.531 18.76C244.531 16.92 244.077 15.48 243.171 14.44C242.264 13.3733 241.037 12.84 239.491 12.84C237.944 12.84 236.717 13.3733 235.811 14.44C234.904 15.48 234.451 16.92 234.451 18.76C234.451 20.6 234.904 22.0533 235.811 23.12C236.717 24.1867 237.944 24.72 239.491 24.72ZM257.111 29.32C255.458 29.32 254.631 28.4667 254.631 26.76V11.64C254.631 9.96 255.445 9.12 257.071 9.12C258.698 9.12 259.511 9.96 259.511 11.64V12.48C260.178 11.36 261.071 10.5067 262.191 9.92C263.338 9.33333 264.618 9.04 266.031 9.04C270.645 9.04 272.951 11.72 272.951 17.08V26.76C272.951 28.4667 272.125 29.32 270.471 29.32C268.791 29.32 267.951 28.4667 267.951 26.76V17.32C267.951 15.8 267.658 14.6933 267.071 14C266.511 13.3067 265.631 12.96 264.431 12.96C262.965 12.96 261.791 13.4267 260.911 14.36C260.058 15.2667 259.631 16.48 259.631 18V26.76C259.631 28.4667 258.791 29.32 257.111 29.32ZM285.19 29.4C284.043 29.4 282.83 29.28 281.55 29.04C280.27 28.8 279.123 28.3867 278.11 27.8C277.55 27.48 277.203 27.0933 277.07 26.64C276.936 26.16 276.95 25.72 277.11 25.32C277.296 24.8933 277.59 24.5867 277.99 24.4C278.416 24.2133 278.91 24.2533 279.47 24.52C280.536 25.0267 281.536 25.3867 282.47 25.6C283.403 25.7867 284.323 25.88 285.23 25.88C286.51 25.88 287.456 25.6667 288.07 25.24C288.71 24.7867 289.03 24.2 289.03 23.48C289.03 22.36 288.203 21.64 286.55 21.32L282.55 20.56C279.163 19.92 277.47 18.16 277.47 15.28C277.47 14 277.816 12.8933 278.51 11.96C279.23 11.0267 280.216 10.3067 281.47 9.8C282.723 9.29333 284.163 9.04 285.79 9.04C288.136 9.04 290.23 9.56 292.07 10.6C292.576 10.8667 292.87 11.24 292.95 11.72C293.056 12.1733 293.003 12.6133 292.79 13.04C292.603 13.44 292.296 13.7333 291.87 13.92C291.443 14.08 290.95 14.0267 290.39 13.76C289.563 13.3333 288.763 13.0267 287.99 12.84C287.243 12.6533 286.523 12.56 285.83 12.56C284.523 12.56 283.55 12.7867 282.91 13.24C282.296 13.6933 281.99 14.2933 281.99 15.04C281.99 16.2133 282.75 16.9333 284.27 17.2L288.27 17.96C290.003 18.28 291.31 18.8667 292.19 19.72C293.096 20.5733 293.55 21.72 293.55 23.16C293.55 25.1067 292.79 26.64 291.27 27.76C289.75 28.8533 287.723 29.4 285.19 29.4Z" fill="#FFB803" fill-opacity="0.96"/>
</svg>
