<svg width="279" height="41" viewBox="0 0 279 41" fill="none" xmlns="http://www.w3.org/2000/svg">
<path d="M3.975 40C1.48167 40 0.235 38.7533 0.235 36.26V4.965C0.235 2.47166 1.48167 1.225 3.975 1.225H23.61C25.5167 1.225 26.47 2.14166 26.47 3.975C26.47 5.88166 25.5167 6.835 23.61 6.835H7V17.505H22.4C24.3067 17.505 25.26 18.44 25.26 20.31C25.26 22.18 24.3067 23.115 22.4 23.115H7V34.39H23.61C25.5167 34.39 26.47 35.325 26.47 37.195C26.47 39.065 25.5167 40 23.61 40H3.975ZM42.5713 40.55C40.2246 40.55 38.1529 39.9817 36.3563 38.845C34.5963 37.7083 33.2213 36.095 32.2313 34.005C31.2413 31.8783 30.7463 29.385 30.7463 26.525C30.7463 23.6283 31.2413 21.1533 32.2313 19.1C33.2213 17.01 34.5963 15.3967 36.3563 14.26C38.1529 13.1233 40.2246 12.555 42.5713 12.555C44.4779 12.555 46.2013 12.9767 47.7413 13.82C49.2813 14.6633 50.4363 15.7817 51.2063 17.175V4.25C51.2063 1.94 52.3429 0.784997 54.6163 0.784997C56.9263 0.784997 58.0813 1.94 58.0813 4.25V36.92C58.0813 39.2667 56.9446 40.44 54.6713 40.44C52.3979 40.44 51.2613 39.2667 51.2613 36.92V35.765C50.4913 37.2317 49.3363 38.405 47.7963 39.285C46.2563 40.1283 44.5146 40.55 42.5713 40.55ZM44.4963 35.325C46.5496 35.325 48.1996 34.5917 49.4463 33.125C50.6929 31.6217 51.3163 29.4217 51.3163 26.525C51.3163 23.5917 50.6929 21.41 49.4463 19.98C48.1996 18.5133 46.5496 17.78 44.4963 17.78C42.4429 17.78 40.7929 18.5133 39.5463 19.98C38.2996 21.41 37.6763 23.5917 37.6763 26.525C37.6763 29.4217 38.2996 31.6217 39.5463 33.125C40.7929 34.5917 42.4429 35.325 44.4963 35.325ZM68.6198 7.605C67.3364 7.605 66.3281 7.29333 65.5948 6.67C64.8981 6.01 64.5498 5.11167 64.5498 3.975C64.5498 2.80166 64.8981 1.90333 65.5948 1.28C66.3281 0.656665 67.3364 0.344999 68.6198 0.344999C71.3331 0.344999 72.6898 1.555 72.6898 3.975C72.6898 6.395 71.3331 7.605 68.6198 7.605ZM68.6198 40.385C67.5198 40.385 66.6764 40.055 66.0898 39.395C65.5031 38.735 65.2098 37.8183 65.2098 36.645V16.46C65.2098 13.9667 66.3464 12.72 68.6198 12.72C70.9298 12.72 72.0848 13.9667 72.0848 16.46V36.645C72.0848 37.8183 71.7914 38.735 71.2048 39.395C70.6181 40.055 69.7564 40.385 68.6198 40.385ZM91.5483 40.55C84.435 40.55 80.8783 37.03 80.8783 29.99V18.275H78.0183C76.185 18.275 75.2683 17.4133 75.2683 15.69C75.2683 13.9667 76.185 13.105 78.0183 13.105H80.8783V8.1C80.8783 5.79 82.0333 4.635 84.3433 4.635C86.6167 4.635 87.7533 5.79 87.7533 8.1V13.105H93.5833C95.4167 13.105 96.3333 13.9667 96.3333 15.69C96.3333 17.4133 95.4167 18.275 93.5833 18.275H87.7533V29.605C87.7533 31.365 88.1383 32.685 88.9083 33.565C89.6783 34.445 90.925 34.885 92.6483 34.885C93.2717 34.885 93.8217 34.83 94.2983 34.72C94.775 34.61 95.1967 34.5367 95.5633 34.5C96.0033 34.4633 96.37 34.61 96.6633 34.94C96.9567 35.2333 97.1033 35.8567 97.1033 36.81C97.1033 37.5433 96.975 38.2033 96.7183 38.79C96.4983 39.34 96.0767 39.725 95.4533 39.945C94.9767 40.0917 94.3533 40.22 93.5833 40.33C92.8133 40.4767 92.135 40.55 91.5483 40.55Z" fill="#FFB803" fill-opacity="0.96"/>
<path d="M119.448 40.44C117.102 40.44 115.928 39.23 115.928 36.81V4.8C115.928 2.41666 117.12 1.225 119.503 1.225H132.758C137.012 1.225 140.293 2.28833 142.603 4.415C144.913 6.54166 146.068 9.51166 146.068 13.325C146.068 17.1383 144.913 20.1267 142.603 22.29C140.293 24.4167 137.012 25.48 132.758 25.48H122.968V36.81C122.968 39.23 121.795 40.44 119.448 40.44ZM122.968 19.925H131.658C136.718 19.925 139.248 17.725 139.248 13.325C139.248 8.96167 136.718 6.78 131.658 6.78H122.968V19.925ZM154.13 40.44C151.783 40.44 150.61 39.2667 150.61 36.92V16.13C150.61 13.82 151.728 12.665 153.965 12.665C156.202 12.665 157.32 13.82 157.32 16.13V17.835C158.64 14.6817 161.463 12.9217 165.79 12.555C167.367 12.3717 168.247 13.27 168.43 15.25C168.613 17.1933 167.66 18.275 165.57 18.495L164.36 18.605C159.85 19.045 157.595 21.355 157.595 25.535V36.92C157.595 39.2667 156.44 40.44 154.13 40.44ZM183.984 40.55C181.197 40.55 178.777 39.9817 176.724 38.845C174.67 37.7083 173.075 36.095 171.939 34.005C170.802 31.8783 170.234 29.385 170.234 26.525C170.234 23.665 170.802 21.19 171.939 19.1C173.075 17.01 174.67 15.3967 176.724 14.26C178.777 13.1233 181.197 12.555 183.984 12.555C186.77 12.555 189.19 13.1233 191.244 14.26C193.297 15.3967 194.892 17.01 196.029 19.1C197.165 21.19 197.734 23.665 197.734 26.525C197.734 29.385 197.165 31.8783 196.029 34.005C194.892 36.095 193.297 37.7083 191.244 38.845C189.19 39.9817 186.77 40.55 183.984 40.55ZM183.984 35.325C186.037 35.325 187.687 34.5917 188.934 33.125C190.18 31.6217 190.804 29.4217 190.804 26.525C190.804 23.5917 190.18 21.41 188.934 19.98C187.687 18.5133 186.037 17.78 183.984 17.78C181.93 17.78 180.28 18.5133 179.034 19.98C177.787 21.41 177.164 23.5917 177.164 26.525C177.164 29.4217 177.787 31.6217 179.034 33.125C180.28 34.5917 181.93 35.325 183.984 35.325ZM226.294 7.605C223.691 7.605 222.389 6.395 222.389 3.975C222.389 1.555 223.691 0.344999 226.294 0.344999C228.934 0.344999 230.254 1.555 230.254 3.975C230.254 5.11167 229.906 6.01 229.209 6.67C228.549 7.29333 227.578 7.605 226.294 7.605ZM208.419 40.44C206.109 40.44 204.954 39.2667 204.954 36.92V18.275H202.424C200.591 18.275 199.674 17.4133 199.674 15.69C199.674 13.9667 200.591 13.105 202.424 13.105H204.954V13.05C204.954 9.34667 205.889 6.54167 207.759 4.635C209.629 2.72833 212.343 1.59166 215.899 1.225L217.549 1.06C218.613 0.949999 219.383 1.13333 219.859 1.61C220.373 2.08666 220.648 2.67333 220.684 3.37C220.721 4.03 220.556 4.635 220.189 5.185C219.859 5.735 219.364 6.04666 218.704 6.12L217.384 6.23C215.441 6.37667 214.029 6.90833 213.149 7.825C212.269 8.74167 211.829 10.1167 211.829 11.95V13.105H226.184C228.458 13.105 229.594 14.3333 229.594 16.79V36.645C229.594 37.8183 229.301 38.735 228.714 39.395C228.164 40.055 227.321 40.385 226.184 40.385C225.084 40.385 224.223 40.055 223.599 39.395C223.013 38.735 222.719 37.8183 222.719 36.645V18.275H211.829V36.92C211.829 39.2667 210.693 40.44 208.419 40.44ZM245.948 40.55C239.824 40.55 236.763 37.1217 236.763 30.265V4.25C236.763 1.94 237.899 0.784997 240.173 0.784997C242.483 0.784997 243.638 1.94 243.638 4.25V29.935C243.638 33.235 245.013 34.885 247.763 34.885C248.056 34.885 248.331 34.885 248.588 34.885C248.844 34.8483 249.101 34.8117 249.357 34.775C249.871 34.7017 250.219 34.8483 250.403 35.215C250.586 35.545 250.678 36.2417 250.678 37.305C250.678 38.2217 250.494 38.9367 250.128 39.45C249.761 39.9633 249.156 40.275 248.313 40.385C247.543 40.495 246.754 40.55 245.948 40.55ZM267.312 40.55C264.269 40.55 261.647 39.9817 259.447 38.845C257.247 37.7083 255.542 36.095 254.332 34.005C253.159 31.915 252.572 29.44 252.572 26.58C252.572 23.7933 253.141 21.355 254.277 19.265C255.451 17.175 257.046 15.5433 259.062 14.37C261.116 13.16 263.444 12.555 266.047 12.555C269.861 12.555 272.867 13.765 275.067 16.185C277.304 18.605 278.422 21.905 278.422 26.085C278.422 27.4417 277.542 28.12 275.782 28.12H259.172C259.686 32.9233 262.436 35.325 267.422 35.325C268.376 35.325 269.439 35.215 270.612 34.995C271.822 34.7383 272.959 34.3167 274.022 33.73C274.976 33.18 275.782 33.015 276.442 33.235C277.102 33.4183 277.561 33.8033 277.817 34.39C278.111 34.9767 278.147 35.6367 277.927 36.37C277.744 37.0667 277.231 37.6717 276.387 38.185C275.104 38.9917 273.619 39.5967 271.932 40C270.282 40.3667 268.742 40.55 267.312 40.55ZM266.322 17.23C264.306 17.23 262.674 17.8533 261.427 19.1C260.181 20.3467 259.429 22.0333 259.172 24.16H272.702C272.556 21.9233 271.932 20.2183 270.832 19.045C269.769 17.835 268.266 17.23 266.322 17.23Z" fill="#112049"/>
</svg>
