<svg width="299" height="59" viewBox="0 0 299 59" fill="none" xmlns="http://www.w3.org/2000/svg">
<g filter="url(#filter0_d_82_2)">
<rect x="4" width="291" height="51" rx="10" fill="#112049"/>
<rect x="4.5" y="0.5" width="290" height="50" rx="9.5" stroke="black"/>
<rect x="4.5" y="0.5" width="290" height="50" rx="9.5" stroke="black" stroke-opacity="0.2"/>
</g>
<path d="M99.5384 31C98.9384 31 98.6384 30.7 98.6384 30.1V17.8C98.6384 17.2 98.9384 16.9 99.5384 16.9H106.978C107.445 16.9 107.678 17.1267 107.678 17.58C107.678 18.0467 107.445 18.28 106.978 18.28H100.238V23.16H106.558C107.025 23.16 107.258 23.3867 107.258 23.84C107.258 24.3067 107.025 24.54 106.558 24.54H100.238V29.62H106.978C107.445 29.62 107.678 29.8467 107.678 30.3C107.678 30.7667 107.445 31 106.978 31H99.5384ZM113.7 31.18C112.834 31.18 112.074 30.9733 111.42 30.56C110.78 30.1467 110.28 29.5667 109.92 28.82C109.574 28.06 109.4 27.1667 109.4 26.14C109.4 25.1 109.574 24.2067 109.92 23.46C110.28 22.7 110.78 22.12 111.42 21.72C112.074 21.3067 112.834 21.1 113.7 21.1C114.46 21.1 115.127 21.2667 115.7 21.6C116.287 21.9333 116.72 22.3933 117 22.98V17.58C117 17.0333 117.274 16.76 117.82 16.76C118.354 16.76 118.62 17.0333 118.62 17.58V30.3C118.62 30.86 118.354 31.14 117.82 31.14C117.287 31.14 117.02 30.86 117.02 30.3V29.26C116.727 29.86 116.287 30.3333 115.7 30.68C115.127 31.0133 114.46 31.18 113.7 31.18ZM114.04 29.88C114.947 29.88 115.674 29.56 116.22 28.92C116.767 28.2667 117.04 27.34 117.04 26.14C117.04 24.9267 116.767 24 116.22 23.36C115.674 22.72 114.947 22.4 114.04 22.4C113.12 22.4 112.387 22.72 111.84 23.36C111.307 24 111.04 24.9267 111.04 26.14C111.04 27.34 111.307 28.2667 111.84 28.92C112.387 29.56 113.12 29.88 114.04 29.88ZM122.461 18.94C121.754 18.94 121.401 18.6067 121.401 17.94C121.401 17.2867 121.754 16.96 122.461 16.96C123.167 16.96 123.521 17.2867 123.521 17.94C123.521 18.6067 123.167 18.94 122.461 18.94ZM122.461 31.1C121.927 31.1 121.661 30.8067 121.661 30.22V22.04C121.661 21.4667 121.927 21.18 122.461 21.18C123.007 21.18 123.281 21.4667 123.281 22.04V30.22C123.281 30.8067 123.007 31.1 122.461 31.1ZM130.209 31.18C129.062 31.18 128.202 30.88 127.629 30.28C127.056 29.6667 126.769 28.7867 126.769 27.64V22.54H125.429C124.962 22.54 124.729 22.3267 124.729 21.9C124.729 21.4867 124.962 21.28 125.429 21.28H126.769V18.98C126.769 18.4333 127.042 18.16 127.589 18.16C128.122 18.16 128.389 18.4333 128.389 18.98V21.28H130.909C131.376 21.28 131.609 21.4867 131.609 21.9C131.609 22.3267 131.376 22.54 130.909 22.54H128.389V27.48C128.389 28.24 128.549 28.82 128.869 29.22C129.189 29.6067 129.709 29.8 130.429 29.8C130.682 29.8 130.896 29.7733 131.069 29.72C131.242 29.6667 131.396 29.64 131.529 29.64C131.649 29.6267 131.749 29.6667 131.829 29.76C131.909 29.8533 131.949 30.0133 131.949 30.24C131.949 30.4 131.916 30.5467 131.849 30.68C131.796 30.8133 131.696 30.9067 131.549 30.96C131.389 31.0133 131.176 31.06 130.909 31.1C130.656 31.1533 130.422 31.18 130.209 31.18ZM139.498 31.14C138.951 31.14 138.678 30.8533 138.678 30.28V17.74C138.678 17.18 138.958 16.9 139.518 16.9H144.258C145.778 16.9 146.938 17.2667 147.738 18C148.551 18.7333 148.958 19.78 148.958 21.14C148.958 22.4867 148.551 23.5333 147.738 24.28C146.938 25.0133 145.778 25.38 144.258 25.38H140.318V30.28C140.318 30.8533 140.044 31.14 139.498 31.14ZM140.318 24H144.058C146.244 24 147.338 23.0467 147.338 21.14C147.338 19.22 146.244 18.26 144.058 18.26H140.318V24ZM151.738 31.14C151.192 31.14 150.918 30.86 150.918 30.3V21.96C150.918 21.4133 151.178 21.14 151.698 21.14C152.232 21.14 152.498 21.4133 152.498 21.96V23.02C152.765 22.4067 153.178 21.94 153.738 21.62C154.298 21.2867 154.965 21.1067 155.738 21.08C156.165 21.04 156.392 21.2533 156.418 21.72C156.458 22.1867 156.218 22.4467 155.698 22.5L155.378 22.54C154.458 22.62 153.758 22.9133 153.278 23.42C152.798 23.9133 152.558 24.5933 152.558 25.46V30.3C152.558 30.86 152.285 31.14 151.738 31.14ZM162.009 31.18C161.063 31.18 160.243 30.9733 159.549 30.56C158.856 30.1467 158.316 29.5667 157.929 28.82C157.556 28.06 157.369 27.1667 157.369 26.14C157.369 25.1133 157.556 24.2267 157.929 23.48C158.316 22.72 158.856 22.1333 159.549 21.72C160.243 21.3067 161.063 21.1 162.009 21.1C162.943 21.1 163.756 21.3067 164.449 21.72C165.156 22.1333 165.696 22.72 166.069 23.48C166.456 24.2267 166.649 25.1133 166.649 26.14C166.649 27.1667 166.456 28.06 166.069 28.82C165.696 29.5667 165.156 30.1467 164.449 30.56C163.756 30.9733 162.943 31.18 162.009 31.18ZM162.009 29.88C162.916 29.88 163.643 29.56 164.189 28.92C164.736 28.2667 165.009 27.34 165.009 26.14C165.009 24.9267 164.736 24 164.189 23.36C163.643 22.72 162.916 22.4 162.009 22.4C161.089 22.4 160.356 22.72 159.809 23.36C159.276 24 159.009 24.9267 159.009 26.14C159.009 27.34 159.276 28.2667 159.809 28.92C160.356 29.56 161.089 29.88 162.009 29.88ZM170.305 31.14C169.772 31.14 169.505 30.86 169.505 30.3V22.54H168.225C167.758 22.54 167.525 22.3267 167.525 21.9C167.525 21.4867 167.758 21.28 168.225 21.28H169.505V20.94C169.505 18.46 170.705 17.12 173.105 16.92L173.705 16.86C173.958 16.8333 174.145 16.88 174.265 17C174.385 17.12 174.445 17.2667 174.445 17.44C174.445 17.6 174.398 17.7533 174.305 17.9C174.225 18.0333 174.105 18.1067 173.945 18.12L173.345 18.16C172.558 18.2133 171.992 18.46 171.645 18.9C171.298 19.34 171.125 19.9533 171.125 20.74V21.28H176.325C176.858 21.28 177.125 21.5667 177.125 22.14V30.22C177.125 30.8067 176.858 31.1 176.325 31.1C175.778 31.1 175.505 30.8067 175.505 30.22V22.54H171.125V30.3C171.125 30.86 170.852 31.14 170.305 31.14ZM176.345 18.94C175.652 18.94 175.305 18.6067 175.305 17.94C175.305 17.2867 175.652 16.96 176.345 16.96C177.038 16.96 177.385 17.2867 177.385 17.94C177.385 18.6067 177.038 18.94 176.345 18.94ZM183.117 31.18C182.157 31.18 181.423 30.8933 180.917 30.32C180.41 29.7333 180.157 28.8867 180.157 27.78V17.58C180.157 17.0333 180.423 16.76 180.957 16.76C181.503 16.76 181.777 17.0333 181.777 17.58V27.66C181.777 29.0867 182.343 29.8 183.477 29.8C183.597 29.8 183.703 29.7933 183.797 29.78C183.89 29.7667 183.983 29.76 184.077 29.76C184.223 29.7467 184.323 29.78 184.377 29.86C184.443 29.94 184.477 30.1 184.477 30.34C184.477 30.7933 184.25 31.0533 183.797 31.12C183.69 31.1467 183.577 31.16 183.457 31.16C183.337 31.1733 183.223 31.18 183.117 31.18ZM190.357 31.18C188.824 31.18 187.61 30.7333 186.717 29.84C185.824 28.9333 185.377 27.7067 185.377 26.16C185.377 25.16 185.577 24.28 185.977 23.52C186.377 22.7467 186.924 22.1533 187.617 21.74C188.324 21.3133 189.137 21.1 190.057 21.1C191.377 21.1 192.41 21.5267 193.157 22.38C193.904 23.22 194.277 24.38 194.277 25.86C194.277 26.2733 194.044 26.48 193.577 26.48H186.957C187.01 27.5867 187.33 28.4333 187.917 29.02C188.504 29.5933 189.317 29.88 190.357 29.88C190.797 29.88 191.244 29.8267 191.697 29.72C192.15 29.6 192.59 29.3933 193.017 29.1C193.324 28.9 193.577 28.86 193.777 28.98C193.99 29.1 194.097 29.2867 194.097 29.54C194.11 29.78 193.977 29.9933 193.697 30.18C193.257 30.5 192.73 30.7467 192.117 30.92C191.517 31.0933 190.93 31.18 190.357 31.18ZM190.097 22.3C189.177 22.3 188.45 22.5867 187.917 23.16C187.384 23.7333 187.07 24.4867 186.977 25.42H192.877C192.837 24.4333 192.577 23.6667 192.097 23.12C191.63 22.5733 190.964 22.3 190.097 22.3Z" fill="white"/>
<defs>
<filter id="filter0_d_82_2" x="0" y="0" width="299" height="59" filterUnits="userSpaceOnUse" color-interpolation-filters="sRGB">
<feFlood flood-opacity="0" result="BackgroundImageFix"/>
<feColorMatrix in="SourceAlpha" type="matrix" values="0 0 0 0 0 0 0 0 0 0 0 0 0 0 0 0 0 0 127 0" result="hardAlpha"/>
<feOffset dy="4"/>
<feGaussianBlur stdDeviation="2"/>
<feComposite in2="hardAlpha" operator="out"/>
<feColorMatrix type="matrix" values="0 0 0 0 0 0 0 0 0 0 0 0 0 0 0 0 0 0 0.25 0"/>
<feBlend mode="normal" in2="BackgroundImageFix" result="effect1_dropShadow_82_2"/>
<feBlend mode="normal" in="SourceGraphic" in2="effect1_dropShadow_82_2" result="shape"/>
</filter>
</defs>
</svg>
