<svg width="299" height="59" viewBox="0 0 299 59" fill="none" xmlns="http://www.w3.org/2000/svg">
<g filter="url(#filter0_d_82_5)">
<rect x="4" width="291" height="51" rx="10" fill="#112049"/>
<rect x="4.5" y="0.5" width="290" height="50" rx="9.5" stroke="black"/>
<rect x="4.5" y="0.5" width="290" height="50" rx="9.5" stroke="black" stroke-opacity="0.2"/>
</g>
<path d="M117.125 30C116.565 30 116.285 29.7133 116.285 29.14V16.66C116.285 16.0867 116.558 15.8 117.105 15.8C117.652 15.8 117.925 16.0867 117.925 16.66V28.56H124.485C124.992 28.56 125.245 28.8 125.245 29.28C125.245 29.76 124.992 30 124.485 30H117.125ZM130.867 30.18C129.92 30.18 129.1 29.9733 128.407 29.56C127.713 29.1467 127.173 28.5667 126.787 27.82C126.413 27.06 126.227 26.1667 126.227 25.14C126.227 24.1133 126.413 23.2267 126.787 22.48C127.173 21.72 127.713 21.1333 128.407 20.72C129.1 20.3067 129.92 20.1 130.867 20.1C131.8 20.1 132.613 20.3067 133.307 20.72C134.013 21.1333 134.553 21.72 134.927 22.48C135.313 23.2267 135.507 24.1133 135.507 25.14C135.507 26.1667 135.313 27.06 134.927 27.82C134.553 28.5667 134.013 29.1467 133.307 29.56C132.613 29.9733 131.8 30.18 130.867 30.18ZM130.867 28.88C131.773 28.88 132.5 28.56 133.047 27.92C133.593 27.2667 133.867 26.34 133.867 25.14C133.867 23.9267 133.593 23 133.047 22.36C132.5 21.72 131.773 21.4 130.867 21.4C129.947 21.4 129.213 21.72 128.667 22.36C128.133 23 127.867 23.9267 127.867 25.14C127.867 26.34 128.133 27.2667 128.667 27.92C129.213 28.56 129.947 28.88 130.867 28.88ZM142.24 33.78C141.533 33.78 140.84 33.6933 140.16 33.52C139.493 33.36 138.887 33.1 138.34 32.74C138.14 32.62 138.02 32.4733 137.98 32.3C137.953 32.14 137.98 31.98 138.06 31.82C138.14 31.6733 138.253 31.5667 138.4 31.5C138.56 31.4333 138.727 31.4467 138.9 31.54C139.487 31.9 140.047 32.1467 140.58 32.28C141.113 32.4133 141.64 32.48 142.16 32.48C144.08 32.48 145.04 31.4933 145.04 29.52V27.8C144.76 28.4133 144.32 28.9 143.72 29.26C143.133 29.6067 142.46 29.78 141.7 29.78C140.807 29.78 140.033 29.5733 139.38 29.16C138.727 28.7467 138.22 28.18 137.86 27.46C137.513 26.7267 137.34 25.88 137.34 24.92C137.34 23.96 137.513 23.12 137.86 22.4C138.22 21.6667 138.727 21.1 139.38 20.7C140.033 20.3 140.807 20.1 141.7 20.1C142.46 20.1 143.133 20.2667 143.72 20.6C144.307 20.9333 144.74 21.4 145.02 22V20.96C145.02 20.4133 145.287 20.14 145.82 20.14C146.353 20.14 146.62 20.4133 146.62 20.96V29.3C146.62 30.7933 146.247 31.9133 145.5 32.66C144.767 33.4067 143.68 33.78 142.24 33.78ZM142 28.46C142.933 28.46 143.673 28.14 144.22 27.5C144.767 26.86 145.04 26 145.04 24.92C145.04 23.84 144.767 22.9867 144.22 22.36C143.673 21.72 142.933 21.4 142 21.4C141.08 21.4 140.347 21.72 139.8 22.36C139.253 22.9867 138.98 23.84 138.98 24.92C138.98 26 139.253 26.86 139.8 27.5C140.347 28.14 141.08 28.46 142 28.46ZM153.699 30.18C152.752 30.18 151.932 29.9733 151.239 29.56C150.545 29.1467 150.005 28.5667 149.619 27.82C149.245 27.06 149.059 26.1667 149.059 25.14C149.059 24.1133 149.245 23.2267 149.619 22.48C150.005 21.72 150.545 21.1333 151.239 20.72C151.932 20.3067 152.752 20.1 153.699 20.1C154.632 20.1 155.445 20.3067 156.139 20.72C156.845 21.1333 157.385 21.72 157.759 22.48C158.145 23.2267 158.339 24.1133 158.339 25.14C158.339 26.1667 158.145 27.06 157.759 27.82C157.385 28.5667 156.845 29.1467 156.139 29.56C155.445 29.9733 154.632 30.18 153.699 30.18ZM153.699 28.88C154.605 28.88 155.332 28.56 155.879 27.92C156.425 27.2667 156.699 26.34 156.699 25.14C156.699 23.9267 156.425 23 155.879 22.36C155.332 21.72 154.605 21.4 153.699 21.4C152.779 21.4 152.045 21.72 151.499 22.36C150.965 23 150.699 23.9267 150.699 25.14C150.699 26.34 150.965 27.2667 151.499 27.92C152.045 28.56 152.779 28.88 153.699 28.88ZM164.212 30.18C161.879 30.18 160.712 28.8933 160.712 26.32V20.96C160.712 20.4133 160.979 20.14 161.512 20.14C162.059 20.14 162.332 20.4133 162.332 20.96V26.3C162.332 27.1667 162.505 27.8067 162.852 28.22C163.212 28.6333 163.772 28.84 164.532 28.84C165.359 28.84 166.032 28.5667 166.552 28.02C167.072 27.46 167.332 26.72 167.332 25.8V20.96C167.332 20.4133 167.605 20.14 168.152 20.14C168.685 20.14 168.952 20.4133 168.952 20.96V29.3C168.952 29.86 168.692 30.14 168.172 30.14C167.639 30.14 167.372 29.86 167.372 29.3V28.36C167.065 28.9467 166.632 29.4 166.072 29.72C165.525 30.0267 164.905 30.18 164.212 30.18ZM175.883 30.18C174.736 30.18 173.876 29.88 173.303 29.28C172.73 28.6667 172.443 27.7867 172.443 26.64V21.54H171.103C170.636 21.54 170.403 21.3267 170.403 20.9C170.403 20.4867 170.636 20.28 171.103 20.28H172.443V17.98C172.443 17.4333 172.716 17.16 173.263 17.16C173.796 17.16 174.063 17.4333 174.063 17.98V20.28H176.583C177.05 20.28 177.283 20.4867 177.283 20.9C177.283 21.3267 177.05 21.54 176.583 21.54H174.063V26.48C174.063 27.24 174.223 27.82 174.543 28.22C174.863 28.6067 175.383 28.8 176.103 28.8C176.356 28.8 176.57 28.7733 176.743 28.72C176.916 28.6667 177.07 28.64 177.203 28.64C177.323 28.6267 177.423 28.6667 177.503 28.76C177.583 28.8533 177.623 29.0133 177.623 29.24C177.623 29.4 177.59 29.5467 177.523 29.68C177.47 29.8133 177.37 29.9067 177.223 29.96C177.063 30.0133 176.85 30.06 176.583 30.1C176.33 30.1533 176.096 30.18 175.883 30.18Z" fill="white"/>
<defs>
<filter id="filter0_d_82_5" x="0" y="0" width="299" height="59" filterUnits="userSpaceOnUse" color-interpolation-filters="sRGB">
<feFlood flood-opacity="0" result="BackgroundImageFix"/>
<feColorMatrix in="SourceAlpha" type="matrix" values="0 0 0 0 0 0 0 0 0 0 0 0 0 0 0 0 0 0 127 0" result="hardAlpha"/>
<feOffset dy="4"/>
<feGaussianBlur stdDeviation="2"/>
<feComposite in2="hardAlpha" operator="out"/>
<feColorMatrix type="matrix" values="0 0 0 0 0 0 0 0 0 0 0 0 0 0 0 0 0 0 0.25 0"/>
<feBlend mode="normal" in2="BackgroundImageFix" result="effect1_dropShadow_82_5"/>
<feBlend mode="normal" in="SourceGraphic" in2="effect1_dropShadow_82_5" result="shape"/>
</filter>
</defs>
</svg>
