<svg width="255" height="51" viewBox="0 0 255 51" fill="none" xmlns="http://www.w3.org/2000/svg">
<path d="M3.535 40.44C1.40833 40.44 0.345 39.34 0.345 37.14V4.085C0.345 1.885 1.445 0.784997 3.645 0.784997C4.56167 0.784997 5.27667 0.968331 5.79 1.335C6.34 1.665 6.835 2.25167 7.275 3.095L19.98 26.58L32.685 3.095C33.125 2.25167 33.6017 1.665 34.115 1.335C34.6283 0.968331 35.3433 0.784997 36.26 0.784997C38.3867 0.784997 39.45 1.885 39.45 4.085V37.14C39.45 39.34 38.3867 40.44 36.26 40.44C34.1333 40.44 33.07 39.34 33.07 37.14V13.875L22.73 32.74C22.3633 33.3633 21.9783 33.8217 21.575 34.115C21.1717 34.4083 20.6217 34.555 19.925 34.555C19.2283 34.555 18.66 34.4083 18.22 34.115C17.78 33.785 17.395 33.3267 17.065 32.74L6.725 13.985V37.14C6.725 39.34 5.66167 40.44 3.535 40.44ZM54.144 50.34C52.8974 50.34 52.0357 49.8817 51.559 48.965C51.0824 48.0483 51.1007 47.0033 51.614 45.83L54.749 38.9L45.344 17.23C44.8307 16.02 44.8307 14.9567 45.344 14.04C45.8574 13.1233 46.8657 12.665 48.369 12.665C49.2124 12.665 49.8907 12.8667 50.404 13.27C50.9174 13.6367 51.3757 14.3517 51.779 15.415L58.379 31.915L65.144 15.36C65.5474 14.3333 66.024 13.6367 66.574 13.27C67.124 12.8667 67.8574 12.665 68.774 12.665C69.9474 12.665 70.7724 13.1233 71.249 14.04C71.7257 14.9567 71.7074 16.0017 71.194 17.175L57.829 47.7C57.3524 48.7267 56.839 49.4233 56.289 49.79C55.739 50.1567 55.024 50.34 54.144 50.34Z" fill="#FFB803" fill-opacity="0.96"/>
<path d="M95.3859 40.44C93.0392 40.44 91.8659 39.23 91.8659 36.81V4.8C91.8659 2.41666 93.0575 1.225 95.4409 1.225H108.696C112.949 1.225 116.231 2.28833 118.541 4.415C120.851 6.54166 122.006 9.51166 122.006 13.325C122.006 17.1383 120.851 20.1267 118.541 22.29C116.231 24.4167 112.949 25.48 108.696 25.48H98.9059V36.81C98.9059 39.23 97.7325 40.44 95.3859 40.44ZM98.9059 19.925H107.596C112.656 19.925 115.186 17.725 115.186 13.325C115.186 8.96167 112.656 6.78 107.596 6.78H98.9059V19.925ZM130.068 40.44C127.721 40.44 126.548 39.2667 126.548 36.92V16.13C126.548 13.82 127.666 12.665 129.903 12.665C132.139 12.665 133.258 13.82 133.258 16.13V17.835C134.578 14.6817 137.401 12.9217 141.728 12.555C143.304 12.3717 144.184 13.27 144.368 15.25C144.551 17.1933 143.598 18.275 141.508 18.495L140.298 18.605C135.788 19.045 133.533 21.355 133.533 25.535V36.92C133.533 39.2667 132.378 40.44 130.068 40.44ZM159.921 40.55C157.134 40.55 154.714 39.9817 152.661 38.845C150.608 37.7083 149.013 36.095 147.876 34.005C146.739 31.8783 146.171 29.385 146.171 26.525C146.171 23.665 146.739 21.19 147.876 19.1C149.013 17.01 150.608 15.3967 152.661 14.26C154.714 13.1233 157.134 12.555 159.921 12.555C162.708 12.555 165.128 13.1233 167.181 14.26C169.234 15.3967 170.829 17.01 171.966 19.1C173.103 21.19 173.671 23.665 173.671 26.525C173.671 29.385 173.103 31.8783 171.966 34.005C170.829 36.095 169.234 37.7083 167.181 38.845C165.128 39.9817 162.708 40.55 159.921 40.55ZM159.921 35.325C161.974 35.325 163.624 34.5917 164.871 33.125C166.118 31.6217 166.741 29.4217 166.741 26.525C166.741 23.5917 166.118 21.41 164.871 19.98C163.624 18.5133 161.974 17.78 159.921 17.78C157.868 17.78 156.218 18.5133 154.971 19.98C153.724 21.41 153.101 23.5917 153.101 26.525C153.101 29.4217 153.724 31.6217 154.971 33.125C156.218 34.5917 157.868 35.325 159.921 35.325ZM202.232 7.605C199.629 7.605 198.327 6.395 198.327 3.975C198.327 1.555 199.629 0.344999 202.232 0.344999C204.872 0.344999 206.192 1.555 206.192 3.975C206.192 5.11167 205.844 6.01 205.147 6.67C204.487 7.29333 203.515 7.605 202.232 7.605ZM184.357 40.44C182.047 40.44 180.892 39.2667 180.892 36.92V18.275H178.362C176.529 18.275 175.612 17.4133 175.612 15.69C175.612 13.9667 176.529 13.105 178.362 13.105H180.892V13.05C180.892 9.34667 181.827 6.54167 183.697 4.635C185.567 2.72833 188.28 1.59166 191.837 1.225L193.487 1.06C194.55 0.949999 195.32 1.13333 195.797 1.61C196.31 2.08666 196.585 2.67333 196.622 3.37C196.659 4.03 196.494 4.635 196.127 5.185C195.797 5.735 195.302 6.04666 194.642 6.12L193.322 6.23C191.379 6.37667 189.967 6.90833 189.087 7.825C188.207 8.74167 187.767 10.1167 187.767 11.95V13.105H202.122C204.395 13.105 205.532 14.3333 205.532 16.79V36.645C205.532 37.8183 205.239 38.735 204.652 39.395C204.102 40.055 203.259 40.385 202.122 40.385C201.022 40.385 200.16 40.055 199.537 39.395C198.95 38.735 198.657 37.8183 198.657 36.645V18.275H187.767V36.92C187.767 39.2667 186.63 40.44 184.357 40.44ZM221.885 40.55C215.762 40.55 212.7 37.1217 212.7 30.265V4.25C212.7 1.94 213.837 0.784997 216.11 0.784997C218.42 0.784997 219.575 1.94 219.575 4.25V29.935C219.575 33.235 220.95 34.885 223.7 34.885C223.993 34.885 224.268 34.885 224.525 34.885C224.782 34.8483 225.038 34.8117 225.295 34.775C225.808 34.7017 226.157 34.8483 226.34 35.215C226.523 35.545 226.615 36.2417 226.615 37.305C226.615 38.2217 226.432 38.9367 226.065 39.45C225.698 39.9633 225.093 40.275 224.25 40.385C223.48 40.495 222.692 40.55 221.885 40.55ZM243.25 40.55C240.207 40.55 237.585 39.9817 235.385 38.845C233.185 37.7083 231.48 36.095 230.27 34.005C229.097 31.915 228.51 29.44 228.51 26.58C228.51 23.7933 229.078 21.355 230.215 19.265C231.388 17.175 232.983 15.5433 235 14.37C237.053 13.16 239.382 12.555 241.985 12.555C245.798 12.555 248.805 13.765 251.005 16.185C253.242 18.605 254.36 21.905 254.36 26.085C254.36 27.4417 253.48 28.12 251.72 28.12H235.11C235.623 32.9233 238.373 35.325 243.36 35.325C244.313 35.325 245.377 35.215 246.55 34.995C247.76 34.7383 248.897 34.3167 249.96 33.73C250.913 33.18 251.72 33.015 252.38 33.235C253.04 33.4183 253.498 33.8033 253.755 34.39C254.048 34.9767 254.085 35.6367 253.865 36.37C253.682 37.0667 253.168 37.6717 252.325 38.185C251.042 38.9917 249.557 39.5967 247.87 40C246.22 40.3667 244.68 40.55 243.25 40.55ZM242.26 17.23C240.243 17.23 238.612 17.8533 237.365 19.1C236.118 20.3467 235.367 22.0333 235.11 24.16H248.64C248.493 21.9233 247.87 20.2183 246.77 19.045C245.707 17.835 244.203 17.23 242.26 17.23Z" fill="#112049"/>
</svg>
