<svg width="187" height="48" viewBox="0 0 187 48" fill="none" xmlns="http://www.w3.org/2000/svg">
<g filter="url(#filter0_d_37_359)">
<rect x="4" width="179" height="40" rx="10" fill="#112049"/>
</g>
<path d="M21.4086 26.176C20.47 26.176 20.0006 25.692 20.0006 24.724V11.92C20.0006 10.9667 20.4773 10.49 21.4306 10.49H26.7326C28.434 10.49 29.7466 10.9153 30.6706 11.766C31.5946 12.6167 32.0566 13.8047 32.0566 15.33C32.0566 16.8553 31.5946 18.0507 30.6706 18.916C29.7466 19.7667 28.434 20.192 26.7326 20.192H22.8166V24.724C22.8166 25.692 22.3473 26.176 21.4086 26.176ZM22.8166 17.97H26.2926C28.3166 17.97 29.3286 17.09 29.3286 15.33C29.3286 13.5847 28.3166 12.712 26.2926 12.712H22.8166V17.97ZM38.4356 26.22C37.3209 26.22 36.3529 25.9927 35.5316 25.538C34.7103 25.0833 34.0723 24.438 33.6176 23.602C33.1629 22.7513 32.9356 21.754 32.9356 20.61C32.9356 19.466 33.1629 18.476 33.6176 17.64C34.0723 16.804 34.7103 16.1587 35.5316 15.704C36.3529 15.2493 37.3209 15.022 38.4356 15.022C39.5503 15.022 40.5183 15.2493 41.3396 15.704C42.1609 16.1587 42.7989 16.804 43.2536 17.64C43.7083 18.476 43.9356 19.466 43.9356 20.61C43.9356 21.754 43.7083 22.7513 43.2536 23.602C42.7989 24.438 42.1609 25.0833 41.3396 25.538C40.5183 25.9927 39.5503 26.22 38.4356 26.22ZM38.4356 24.13C39.2569 24.13 39.9169 23.8367 40.4156 23.25C40.9143 22.6487 41.1636 21.7687 41.1636 20.61C41.1636 19.4367 40.9143 18.564 40.4156 17.992C39.9169 17.4053 39.2569 17.112 38.4356 17.112C37.6143 17.112 36.9543 17.4053 36.4556 17.992C35.9569 18.564 35.7076 19.4367 35.7076 20.61C35.7076 21.7687 35.9569 22.6487 36.4556 23.25C36.9543 23.8367 37.6143 24.13 38.4356 24.13ZM50.1434 26.22C49.5127 26.22 48.8454 26.154 48.1414 26.022C47.4374 25.89 46.8067 25.6627 46.2494 25.34C45.9414 25.164 45.7507 24.9513 45.6774 24.702C45.6041 24.438 45.6114 24.196 45.6994 23.976C45.8021 23.7413 45.9634 23.5727 46.1834 23.47C46.4181 23.3673 46.6894 23.3893 46.9974 23.536C47.5841 23.8147 48.1341 24.0127 48.6474 24.13C49.1607 24.2327 49.6667 24.284 50.1654 24.284C50.8694 24.284 51.3901 24.1667 51.7274 23.932C52.0794 23.6827 52.2554 23.36 52.2554 22.964C52.2554 22.348 51.8007 21.952 50.8914 21.776L48.6914 21.358C46.8287 21.006 45.8974 20.038 45.8974 18.454C45.8974 17.75 46.0881 17.1413 46.4694 16.628C46.8654 16.1147 47.4081 15.7187 48.0974 15.44C48.7867 15.1613 49.5787 15.022 50.4734 15.022C51.7641 15.022 52.9154 15.308 53.9274 15.88C54.2061 16.0267 54.3674 16.232 54.4114 16.496C54.4701 16.7453 54.4407 16.9873 54.3234 17.222C54.2207 17.442 54.0521 17.6033 53.8174 17.706C53.5827 17.794 53.3114 17.7647 53.0034 17.618C52.5487 17.3833 52.1087 17.2147 51.6834 17.112C51.2727 17.0093 50.8767 16.958 50.4954 16.958C49.7767 16.958 49.2414 17.0827 48.8894 17.332C48.5521 17.5813 48.3834 17.9113 48.3834 18.322C48.3834 18.9673 48.8014 19.3633 49.6374 19.51L51.8374 19.928C52.7907 20.104 53.5094 20.4267 53.9934 20.896C54.4921 21.3653 54.7414 21.996 54.7414 22.788C54.7414 23.8587 54.3234 24.702 53.4874 25.318C52.6514 25.9193 51.5367 26.22 50.1434 26.22ZM61.7682 26.22C58.9228 26.22 57.5002 24.812 57.5002 21.996V17.31H56.3562C55.6228 17.31 55.2562 16.9653 55.2562 16.276C55.2562 15.5867 55.6228 15.242 56.3562 15.242H57.5002V13.24C57.5002 12.316 57.9622 11.854 58.8862 11.854C59.7955 11.854 60.2502 12.316 60.2502 13.24V15.242H62.5822C63.3155 15.242 63.6822 15.5867 63.6822 16.276C63.6822 16.9653 63.3155 17.31 62.5822 17.31H60.2502V21.842C60.2502 22.546 60.4042 23.074 60.7122 23.426C61.0202 23.778 61.5188 23.954 62.2082 23.954C62.4575 23.954 62.6775 23.932 62.8682 23.888C63.0588 23.844 63.2275 23.8147 63.3742 23.8C63.5502 23.7853 63.6968 23.844 63.8142 23.976C63.9315 24.0933 63.9902 24.3427 63.9902 24.724C63.9902 25.0173 63.9388 25.2813 63.8362 25.516C63.7482 25.736 63.5795 25.89 63.3302 25.978C63.1395 26.0367 62.8902 26.088 62.5822 26.132C62.2742 26.1907 62.0028 26.22 61.7682 26.22ZM78.7362 26.22C77.1228 26.22 75.7368 25.8973 74.5782 25.252C73.4342 24.592 72.5542 23.668 71.9382 22.48C71.3222 21.2773 71.0142 19.862 71.0142 18.234C71.0142 16.606 71.3222 15.198 71.9382 14.01C72.5542 12.822 73.4342 11.9053 74.5782 11.26C75.7368 10.6 77.1228 10.27 78.7362 10.27C79.5428 10.27 80.3348 10.3727 81.1122 10.578C81.8895 10.7833 82.5715 11.0767 83.1582 11.458C83.5395 11.7073 83.7668 12.008 83.8402 12.36C83.9135 12.6973 83.8695 13.0127 83.7082 13.306C83.5468 13.5847 83.3048 13.7753 82.9822 13.878C82.6595 13.966 82.3002 13.878 81.9042 13.614C81.4495 13.3207 80.9582 13.108 80.4302 12.976C79.9022 12.844 79.3668 12.778 78.8242 12.778C77.2548 12.778 76.0595 13.2547 75.2382 14.208C74.4168 15.1467 74.0062 16.4887 74.0062 18.234C74.0062 19.9793 74.4168 21.3287 75.2382 22.282C76.0595 23.2353 77.2548 23.712 78.8242 23.712C79.3815 23.712 79.9315 23.646 80.4742 23.514C81.0168 23.3673 81.5302 23.1473 82.0142 22.854C82.4102 22.6047 82.7622 22.524 83.0702 22.612C83.3782 22.7 83.6055 22.8833 83.7522 23.162C83.9135 23.426 83.9648 23.7193 83.9062 24.042C83.8475 24.3647 83.6495 24.6507 83.3122 24.9C82.7255 25.3253 82.0215 25.6553 81.2002 25.89C80.3935 26.11 79.5722 26.22 78.7362 26.22ZM89.3646 26.22C88.5872 26.22 87.8906 26.0733 87.2746 25.78C86.6732 25.472 86.1966 25.0613 85.8446 24.548C85.5072 24.0347 85.3386 23.4553 85.3386 22.81C85.3386 22.018 85.5439 21.3947 85.9546 20.94C86.3652 20.4707 87.0326 20.1333 87.9566 19.928C88.8806 19.7227 90.1199 19.62 91.6746 19.62H92.4446V19.158C92.4446 18.4247 92.2832 17.8967 91.9606 17.574C91.6379 17.2513 91.0952 17.09 90.3326 17.09C89.9072 17.09 89.4452 17.1413 88.9466 17.244C88.4626 17.3467 87.9492 17.5227 87.4066 17.772C87.0546 17.9333 86.7612 17.9553 86.5266 17.838C86.2919 17.706 86.1306 17.508 86.0426 17.244C85.9692 16.9653 85.9839 16.6867 86.0866 16.408C86.2039 16.1293 86.4312 15.924 86.7686 15.792C87.4432 15.5133 88.0886 15.3153 88.7046 15.198C89.3352 15.0807 89.9072 15.022 90.4206 15.022C91.9899 15.022 93.1559 15.3887 93.9186 16.122C94.6812 16.8407 95.0626 17.9627 95.0626 19.488V24.768C95.0626 25.7067 94.6372 26.176 93.7866 26.176C92.9212 26.176 92.4886 25.7067 92.4886 24.768V24.284C92.2392 24.8853 91.8432 25.362 91.3006 25.714C90.7579 26.0513 90.1126 26.22 89.3646 26.22ZM89.9366 24.328C90.6552 24.328 91.2492 24.0787 91.7186 23.58C92.2026 23.0813 92.4446 22.4507 92.4446 21.688V21.204H91.6966C90.3179 21.204 89.3572 21.314 88.8146 21.534C88.2866 21.7393 88.0226 22.1207 88.0226 22.678C88.0226 23.162 88.1912 23.558 88.5286 23.866C88.8659 24.174 89.3352 24.328 89.9366 24.328ZM99.2618 26.176C98.3525 26.176 97.8978 25.7067 97.8978 24.768V16.452C97.8978 15.528 98.3452 15.066 99.2398 15.066C100.134 15.066 100.582 15.528 100.582 16.452V16.892C100.904 16.3053 101.352 15.8507 101.924 15.528C102.496 15.1907 103.156 15.022 103.904 15.022C105.517 15.022 106.573 15.726 107.072 17.134C107.409 16.474 107.893 15.9607 108.524 15.594C109.154 15.2127 109.873 15.022 110.68 15.022C113.1 15.022 114.31 16.496 114.31 19.444V24.768C114.31 25.7067 113.848 26.176 112.924 26.176C112.014 26.176 111.56 25.7067 111.56 24.768V19.554C111.56 18.7327 111.42 18.1313 111.142 17.75C110.878 17.3687 110.423 17.178 109.778 17.178C109.059 17.178 108.494 17.4347 108.084 17.948C107.673 18.4467 107.468 19.1433 107.468 20.038V24.768C107.468 25.7067 107.013 26.176 106.104 26.176C105.18 26.176 104.718 25.7067 104.718 24.768V19.554C104.718 18.7327 104.578 18.1313 104.3 17.75C104.036 17.3687 103.588 17.178 102.958 17.178C102.239 17.178 101.674 17.4347 101.264 17.948C100.853 18.4467 100.648 19.1433 100.648 20.038V24.768C100.648 25.7067 100.186 26.176 99.2618 26.176ZM118.511 30.136C117.601 30.136 117.147 29.674 117.147 28.75V16.452C117.147 15.528 117.594 15.066 118.489 15.066C119.398 15.066 119.853 15.528 119.853 16.452V16.914C120.161 16.342 120.623 15.8873 121.239 15.55C121.855 15.198 122.559 15.022 123.351 15.022C124.289 15.022 125.111 15.2493 125.815 15.704C126.533 16.1587 127.091 16.804 127.487 17.64C127.883 18.4613 128.081 19.4513 128.081 20.61C128.081 21.754 127.883 22.7513 127.487 23.602C127.091 24.438 126.541 25.0833 125.837 25.538C125.133 25.9927 124.304 26.22 123.351 26.22C122.588 26.22 121.899 26.0587 121.283 25.736C120.681 25.3987 120.219 24.9513 119.897 24.394V28.75C119.897 29.674 119.435 30.136 118.511 30.136ZM122.581 24.13C123.402 24.13 124.062 23.8367 124.561 23.25C125.059 22.6487 125.309 21.7687 125.309 20.61C125.309 19.4367 125.059 18.564 124.561 17.992C124.062 17.4053 123.402 17.112 122.581 17.112C121.759 17.112 121.099 17.4053 120.601 17.992C120.102 18.564 119.853 19.4367 119.853 20.61C119.853 21.7687 120.102 22.6487 120.601 23.25C121.099 23.8367 121.759 24.13 122.581 24.13ZM133.88 26.22C133.103 26.22 132.406 26.0733 131.79 25.78C131.189 25.472 130.712 25.0613 130.36 24.548C130.023 24.0347 129.854 23.4553 129.854 22.81C129.854 22.018 130.06 21.3947 130.47 20.94C130.881 20.4707 131.548 20.1333 132.472 19.928C133.396 19.7227 134.636 19.62 136.19 19.62H136.96V19.158C136.96 18.4247 136.799 17.8967 136.476 17.574C136.154 17.2513 135.611 17.09 134.848 17.09C134.423 17.09 133.961 17.1413 133.462 17.244C132.978 17.3467 132.465 17.5227 131.922 17.772C131.57 17.9333 131.277 17.9553 131.042 17.838C130.808 17.706 130.646 17.508 130.558 17.244C130.485 16.9653 130.5 16.6867 130.602 16.408C130.72 16.1293 130.947 15.924 131.284 15.792C131.959 15.5133 132.604 15.3153 133.22 15.198C133.851 15.0807 134.423 15.022 134.936 15.022C136.506 15.022 137.672 15.3887 138.434 16.122C139.197 16.8407 139.578 17.9627 139.578 19.488V24.768C139.578 25.7067 139.153 26.176 138.302 26.176C137.437 26.176 137.004 25.7067 137.004 24.768V24.284C136.755 24.8853 136.359 25.362 135.816 25.714C135.274 26.0513 134.628 26.22 133.88 26.22ZM134.452 24.328C135.171 24.328 135.765 24.0787 136.234 23.58C136.718 23.0813 136.96 22.4507 136.96 21.688V21.204H136.212C134.834 21.204 133.873 21.314 133.33 21.534C132.802 21.7393 132.538 22.1207 132.538 22.678C132.538 23.162 132.707 23.558 133.044 23.866C133.382 24.174 133.851 24.328 134.452 24.328ZM143.733 13.042C143.22 13.042 142.817 12.9173 142.523 12.668C142.245 12.404 142.105 12.0447 142.105 11.59C142.105 11.1207 142.245 10.7613 142.523 10.512C142.817 10.2627 143.22 10.138 143.733 10.138C144.819 10.138 145.361 10.622 145.361 11.59C145.361 12.558 144.819 13.042 143.733 13.042ZM143.733 26.154C143.293 26.154 142.956 26.022 142.721 25.758C142.487 25.494 142.369 25.1273 142.369 24.658V16.584C142.369 15.5867 142.824 15.088 143.733 15.088C144.657 15.088 145.119 15.5867 145.119 16.584V24.658C145.119 25.1273 145.002 25.494 144.767 25.758C144.533 26.022 144.188 26.154 143.733 26.154ZM152.993 30.18C152.201 30.18 151.431 30.1067 150.683 29.96C149.95 29.8133 149.282 29.586 148.681 29.278C148.329 29.102 148.116 28.8747 148.043 28.596C147.984 28.332 148.014 28.0753 148.131 27.826C148.248 27.5767 148.424 27.3933 148.659 27.276C148.908 27.1733 149.172 27.188 149.451 27.32C150.096 27.6427 150.705 27.848 151.277 27.936C151.864 28.0387 152.362 28.09 152.773 28.09C154.738 28.09 155.721 27.144 155.721 25.252V23.778C155.413 24.3793 154.936 24.856 154.291 25.208C153.66 25.56 152.956 25.736 152.179 25.736C151.211 25.736 150.368 25.516 149.649 25.076C148.93 24.6213 148.373 23.9907 147.977 23.184C147.581 22.3773 147.383 21.4387 147.383 20.368C147.383 19.2973 147.581 18.366 147.977 17.574C148.373 16.7673 148.93 16.144 149.649 15.704C150.368 15.2493 151.211 15.022 152.179 15.022C152.956 15.022 153.66 15.1907 154.291 15.528C154.922 15.8653 155.384 16.3273 155.677 16.914V16.452C155.677 15.9973 155.794 15.6527 156.029 15.418C156.278 15.1833 156.616 15.066 157.041 15.066C157.95 15.066 158.405 15.528 158.405 16.452V24.922C158.405 26.6673 157.943 27.98 157.019 28.86C156.095 29.74 154.753 30.18 152.993 30.18ZM152.927 23.646C153.778 23.646 154.452 23.3527 154.951 22.766C155.45 22.1793 155.699 21.38 155.699 20.368C155.699 19.356 155.45 18.564 154.951 17.992C154.452 17.4053 153.778 17.112 152.927 17.112C152.076 17.112 151.402 17.4053 150.903 17.992C150.404 18.564 150.155 19.356 150.155 20.368C150.155 21.38 150.404 22.1793 150.903 22.766C151.402 23.3527 152.076 23.646 152.927 23.646ZM162.618 26.176C161.709 26.176 161.254 25.7067 161.254 24.768V16.452C161.254 15.528 161.702 15.066 162.596 15.066C163.491 15.066 163.938 15.528 163.938 16.452V16.914C164.305 16.298 164.796 15.8287 165.412 15.506C166.043 15.1833 166.747 15.022 167.524 15.022C170.062 15.022 171.33 16.496 171.33 19.444V24.768C171.33 25.7067 170.876 26.176 169.966 26.176C169.042 26.176 168.58 25.7067 168.58 24.768V19.576C168.58 18.74 168.419 18.1313 168.096 17.75C167.788 17.3687 167.304 17.178 166.644 17.178C165.838 17.178 165.192 17.4347 164.708 17.948C164.239 18.4467 164.004 19.114 164.004 19.95V24.768C164.004 25.7067 163.542 26.176 162.618 26.176Z" fill="white"/>
<defs>
<filter id="filter0_d_37_359" x="0" y="0" width="187" height="48" filterUnits="userSpaceOnUse" color-interpolation-filters="sRGB">
<feFlood flood-opacity="0" result="BackgroundImageFix"/>
<feColorMatrix in="SourceAlpha" type="matrix" values="0 0 0 0 0 0 0 0 0 0 0 0 0 0 0 0 0 0 127 0" result="hardAlpha"/>
<feOffset dy="4"/>
<feGaussianBlur stdDeviation="2"/>
<feComposite in2="hardAlpha" operator="out"/>
<feColorMatrix type="matrix" values="0 0 0 0 0 0 0 0 0 0 0 0 0 0 0 0 0 0 0.25 0"/>
<feBlend mode="normal" in2="BackgroundImageFix" result="effect1_dropShadow_37_359"/>
<feBlend mode="normal" in="SourceGraphic" in2="effect1_dropShadow_37_359" result="shape"/>
</filter>
</defs>
</svg>
