<svg width="172" height="44" viewBox="0 0 172 44" fill="none" xmlns="http://www.w3.org/2000/svg">
<g filter="url(#filter0_d_22_254)">
<rect x="4" width="161.647" height="36" rx="10" fill="#112049"/>
<rect x="4.5" y="0.5" width="160.647" height="35" rx="9.5" stroke="black"/>
<rect x="4.5" y="0.5" width="160.647" height="35" rx="9.5" stroke="black" stroke-opacity="0.2"/>
</g>
<path d="M72.4934 24.0931C71.5334 24.0931 70.6267 23.9798 69.7734 23.7531C68.9334 23.5131 68.2067 23.1664 67.5934 22.7131C67.38 22.5664 67.2534 22.3931 67.2134 22.1931C67.1734 21.9931 67.1934 21.8064 67.2734 21.6331C67.3667 21.4598 67.5 21.3464 67.6734 21.2931C67.8467 21.2264 68.0467 21.2664 68.2734 21.4131C68.8734 21.8531 69.5134 22.1664 70.1934 22.3531C70.8734 22.5398 71.64 22.6331 72.4934 22.6331C73.6934 22.6331 74.58 22.4131 75.1534 21.9731C75.74 21.5198 76.0334 20.9264 76.0334 20.1931C76.0334 19.6064 75.82 19.1398 75.3934 18.7931C74.98 18.4464 74.28 18.1731 73.2934 17.9731L71.2134 17.5531C69.96 17.2864 69.02 16.8531 68.3934 16.2531C67.78 15.6398 67.4734 14.8264 67.4734 13.8131C67.4734 12.9731 67.6867 12.2398 68.1134 11.6131C68.5534 10.9864 69.16 10.4998 69.9334 10.1531C70.7067 9.80642 71.6 9.63309 72.6134 9.63309C73.4534 9.63309 74.2334 9.75309 74.9534 9.99309C75.6867 10.2198 76.3467 10.5664 76.9334 11.0331C77.12 11.1798 77.2267 11.3531 77.2534 11.5531C77.2934 11.7398 77.2667 11.9131 77.1734 12.0731C77.08 12.2331 76.9467 12.3398 76.7734 12.3931C76.6 12.4331 76.3934 12.3798 76.1534 12.2331C75.62 11.8198 75.06 11.5264 74.4734 11.3531C73.9 11.1798 73.2734 11.0931 72.5934 11.0931C71.54 11.0931 70.7 11.3398 70.0734 11.8331C69.4467 12.3131 69.1334 12.9531 69.1334 13.7531C69.1334 14.3931 69.3267 14.8998 69.7134 15.2731C70.1134 15.6464 70.76 15.9198 71.6534 16.0931L73.7334 16.5331C75.08 16.8131 76.0734 17.2398 76.7134 17.8131C77.3667 18.3731 77.6934 19.1398 77.6934 20.1131C77.6934 20.8998 77.48 21.5931 77.0534 22.1931C76.64 22.7931 76.04 23.2598 75.2534 23.5931C74.48 23.9264 73.56 24.0931 72.4934 24.0931ZM83.078 24.0931C82.4114 24.0931 81.8114 23.9664 81.278 23.7131C80.758 23.4464 80.3447 23.0864 80.038 22.6331C79.7314 22.1798 79.578 21.6731 79.578 21.1131C79.578 20.4064 79.758 19.8464 80.118 19.4331C80.4914 19.0198 81.098 18.7264 81.938 18.5531C82.7914 18.3664 83.9514 18.2731 85.418 18.2731H86.058V17.6531C86.058 16.8264 85.8847 16.2331 85.538 15.8731C85.2047 15.4998 84.6647 15.3131 83.918 15.3131C83.4514 15.3131 82.978 15.3731 82.498 15.4931C82.0314 15.6131 81.5447 15.8064 81.038 16.0731C80.8114 16.1931 80.618 16.2198 80.458 16.1531C80.3114 16.0731 80.2047 15.9531 80.138 15.7931C80.0847 15.6198 80.0847 15.4464 80.138 15.2731C80.2047 15.0864 80.338 14.9464 80.538 14.8531C81.1114 14.5598 81.6847 14.3464 82.258 14.2131C82.8447 14.0798 83.398 14.0131 83.918 14.0131C85.1714 14.0131 86.098 14.3198 86.698 14.9331C87.3114 15.5464 87.618 16.4998 87.618 17.7931V23.2131C87.618 23.7731 87.3714 24.0531 86.878 24.0531C86.358 24.0531 86.098 23.7731 86.098 23.2131V22.2331C85.8447 22.8064 85.4514 23.2598 84.918 23.5931C84.398 23.9264 83.7847 24.0931 83.078 24.0931ZM83.338 22.8731C84.138 22.8731 84.7914 22.5998 85.298 22.0531C85.8047 21.4931 86.058 20.7864 86.058 19.9331V19.3331H85.438C84.358 19.3331 83.5047 19.3864 82.878 19.4931C82.2647 19.5864 81.8314 19.7598 81.578 20.0131C81.338 20.2531 81.218 20.5864 81.218 21.0131C81.218 21.5598 81.4047 22.0064 81.778 22.3531C82.1647 22.6998 82.6847 22.8731 83.338 22.8731ZM94.1459 24.0531C93.6792 24.0531 93.3325 23.7931 93.1059 23.2731L89.6459 15.1931C89.5125 14.8864 89.5059 14.6198 89.6259 14.3931C89.7459 14.1664 89.9859 14.0531 90.3459 14.0531C90.7192 14.0531 90.9925 14.2664 91.1659 14.6931L94.1859 22.0731L97.2459 14.6931C97.3392 14.4531 97.4459 14.2864 97.5659 14.1931C97.6859 14.0998 97.8592 14.0531 98.0859 14.0531C98.3925 14.0531 98.5992 14.1664 98.7059 14.3931C98.8125 14.6198 98.8059 14.8798 98.6859 15.1731L95.1859 23.2731C94.9725 23.7931 94.6259 24.0531 94.1459 24.0531ZM105.062 24.0931C103.529 24.0931 102.315 23.6464 101.422 22.7531C100.529 21.8464 100.082 20.6198 100.082 19.0731C100.082 18.0731 100.282 17.1931 100.682 16.4331C101.082 15.6598 101.629 15.0664 102.322 14.6531C103.029 14.2264 103.842 14.0131 104.762 14.0131C106.082 14.0131 107.115 14.4398 107.862 15.2931C108.609 16.1331 108.982 17.2931 108.982 18.7731C108.982 19.1864 108.749 19.3931 108.282 19.3931H101.662C101.715 20.4998 102.035 21.3464 102.622 21.9331C103.209 22.5064 104.022 22.7931 105.062 22.7931C105.502 22.7931 105.949 22.7398 106.402 22.6331C106.855 22.5131 107.295 22.3064 107.722 22.0131C108.029 21.8131 108.282 21.7731 108.482 21.8931C108.695 22.0131 108.802 22.1998 108.802 22.4531C108.815 22.6931 108.682 22.9064 108.402 23.0931C107.962 23.4131 107.435 23.6598 106.822 23.8331C106.222 24.0064 105.635 24.0931 105.062 24.0931ZM104.802 15.2131C103.882 15.2131 103.155 15.4998 102.622 16.0731C102.089 16.6464 101.775 17.3998 101.682 18.3331H107.582C107.542 17.3464 107.282 16.5798 106.802 16.0331C106.335 15.4864 105.669 15.2131 104.802 15.2131Z" fill="white"/>
<defs>
<filter id="filter0_d_22_254" x="0" y="0" width="169.647" height="44" filterUnits="userSpaceOnUse" color-interpolation-filters="sRGB">
<feFlood flood-opacity="0" result="BackgroundImageFix"/>
<feColorMatrix in="SourceAlpha" type="matrix" values="0 0 0 0 0 0 0 0 0 0 0 0 0 0 0 0 0 0 127 0" result="hardAlpha"/>
<feOffset dy="4"/>
<feGaussianBlur stdDeviation="2"/>
<feComposite in2="hardAlpha" operator="out"/>
<feColorMatrix type="matrix" values="0 0 0 0 0 0 0 0 0 0 0 0 0 0 0 0 0 0 0.25 0"/>
<feBlend mode="normal" in2="BackgroundImageFix" result="effect1_dropShadow_22_254"/>
<feBlend mode="normal" in="SourceGraphic" in2="effect1_dropShadow_22_254" result="shape"/>
</filter>
</defs>
</svg>
